# xmcd
#
# Track frame offsets: 
#        150
#        13579
#        25524
#        40608
#        54779
#        68420
#        81623
#        94806
#        109365
#        124344
#        136445
#        149969
#        162426
#        177211
#        189880
#        201829
#
# Disc length: 2889 seconds
#
# Revision: 0
# Processed by: cddbd v1.4PL0 Copyright (c) Steve Scherf et al.
# Submitted via: ExactAudioCopy v0.95a4
#
DISCID=dd0b4710
DTITLE=Jimmie Rodgers - The Yodeler
DYEAR=1965
DGENRE=Yodeling
TTITLE0=Blue yodel - number 8
TTITLE1=The one rose
TTITLE2=Looking for a new mama
TTITLE3=Why there's a tear in my eye
TTITLE4=Mystery of number five
TTITLE5=The wonderful city
TTITLE6=In the jailhouse now - number 2
TTITLE7=Ninety-nine years blue
TTITLE8=For the sake of days gone by
TTITLE9=Let me be your side track
TTITLE10=TB blue
TTITLE11=Travellin' blues
TTITLE12=Jimmie's mean mama blues
TTITLE13=Jimmie the kid
TTITLE14=Blue yodel - number 9
TTITLE15=I'm lonesome too
EXTD=
EXTT0=
EXTT1=
EXTT2=
EXTT3=
EXTT4=
EXTT5=
EXTT6=
EXTT7=
EXTT8=
EXTT9=
EXTT10=
EXTT11=
EXTT12=
EXTT13=
EXTT14=
EXTT15=
PLAYORDER=
